<?xml version="1.0" encoding="UTF-8"?><svg xmlns="http://www.w3.org/2000/svg" viewBox="0 0 21.87 5.81"><defs><style>.d{fill:#231f20;}</style></defs><g id="a"/><g id="b"><g id="c"><g><polygon class="d" points="11.29 0 11.69 2.2 13.8 1.45 12.1 2.9 13.8 4.35 11.69 3.6 11.29 5.81 10.89 3.6 8.78 4.35 10.48 2.9 8.78 1.45 10.89 2.2 11.29 0"/><polygon class="d" points="20.53 1.56 20.81 2.62 21.87 2.9 20.81 3.19 20.53 4.24 20.24 3.19 19.19 2.9 20.24 2.62 20.53 1.56"/><polygon class="d" points="1.34 1.56 1.63 2.62 2.68 2.9 1.63 3.19 1.34 4.24 1.06 3.19 0 2.9 1.06 2.62 1.34 1.56"/></g></g></g></svg>